<mxfile host="app.diagrams.net" modified="2021-10-30T03:31:19.308Z" agent="5.0 (Windows NT 10.0; Win64; x64) AppleWebKit/537.36 (KHTML, like Gecko) Chrome/95.0.4638.54 Safari/537.36" etag="9RkhOvUby10GD9_G5Bez" version="15.2.9" type="github">
  <diagram id="-Qpq79jEVsmDyqS9F8ka" name="Page-1">
    <mxGraphModel dx="395" dy="248" grid="1" gridSize="10" guides="1" tooltips="1" connect="1" arrows="1" fold="1" page="1" pageScale="1" pageWidth="827" pageHeight="1169" math="0" shadow="0">
      <root>
        <mxCell id="0" />
        <mxCell id="1" parent="0" />
        <mxCell id="b-UJ_pfdfNBNcFtkT3sI-1" value="" style="rounded=1;whiteSpace=wrap;html=1;strokeWidth=2;fillWeight=2;hachureGap=4;hachureAngle=45;sketch=1;" vertex="1" parent="1">
          <mxGeometry x="80" y="80" width="10" height="40" as="geometry" />
        </mxCell>
        <mxCell id="b-UJ_pfdfNBNcFtkT3sI-2" value="" style="rounded=1;whiteSpace=wrap;html=1;strokeWidth=2;fillWeight=2;hachureGap=4;hachureAngle=45;sketch=1;" vertex="1" parent="1">
          <mxGeometry x="90" y="80" width="10" height="40" as="geometry" />
        </mxCell>
        <mxCell id="b-UJ_pfdfNBNcFtkT3sI-3" value="" style="rounded=1;whiteSpace=wrap;html=1;strokeWidth=2;fillWeight=2;hachureGap=4;hachureAngle=45;sketch=1;" vertex="1" parent="1">
          <mxGeometry x="100" y="80" width="10" height="40" as="geometry" />
        </mxCell>
        <mxCell id="b-UJ_pfdfNBNcFtkT3sI-4" value="" style="rounded=1;whiteSpace=wrap;html=1;strokeWidth=2;fillWeight=2;hachureGap=4;hachureAngle=45;sketch=1;" vertex="1" parent="1">
          <mxGeometry x="110" y="80" width="10" height="40" as="geometry" />
        </mxCell>
        <mxCell id="b-UJ_pfdfNBNcFtkT3sI-5" value="" style="rounded=1;whiteSpace=wrap;html=1;strokeWidth=2;fillWeight=2;hachureGap=4;hachureAngle=45;sketch=1;" vertex="1" parent="1">
          <mxGeometry x="120" y="80" width="10" height="40" as="geometry" />
        </mxCell>
        <mxCell id="b-UJ_pfdfNBNcFtkT3sI-6" value="" style="rounded=1;whiteSpace=wrap;html=1;strokeWidth=2;fillWeight=2;hachureGap=4;hachureAngle=45;sketch=1;" vertex="1" parent="1">
          <mxGeometry x="130" y="80" width="10" height="40" as="geometry" />
        </mxCell>
        <mxCell id="b-UJ_pfdfNBNcFtkT3sI-7" value="" style="rounded=1;whiteSpace=wrap;html=1;strokeWidth=2;fillWeight=2;hachureGap=4;hachureAngle=45;sketch=1;" vertex="1" parent="1">
          <mxGeometry x="140" y="80" width="10" height="40" as="geometry" />
        </mxCell>
        <mxCell id="b-UJ_pfdfNBNcFtkT3sI-8" value="" style="rounded=1;whiteSpace=wrap;html=1;strokeWidth=2;fillWeight=2;hachureGap=4;hachureAngle=45;sketch=1;" vertex="1" parent="1">
          <mxGeometry x="150" y="80" width="10" height="40" as="geometry" />
        </mxCell>
        <mxCell id="b-UJ_pfdfNBNcFtkT3sI-9" value="" style="rounded=1;whiteSpace=wrap;html=1;strokeWidth=2;fillWeight=2;hachureGap=4;hachureAngle=45;sketch=1;" vertex="1" parent="1">
          <mxGeometry x="160" y="80" width="10" height="40" as="geometry" />
        </mxCell>
        <mxCell id="b-UJ_pfdfNBNcFtkT3sI-10" value="" style="rounded=1;whiteSpace=wrap;html=1;strokeWidth=2;fillWeight=2;hachureGap=4;hachureAngle=45;sketch=1;" vertex="1" parent="1">
          <mxGeometry x="170" y="80" width="10" height="40" as="geometry" />
        </mxCell>
        <mxCell id="b-UJ_pfdfNBNcFtkT3sI-11" value="" style="rounded=1;whiteSpace=wrap;html=1;strokeWidth=2;fillWeight=2;hachureGap=4;hachureAngle=45;sketch=1;" vertex="1" parent="1">
          <mxGeometry x="180" y="80" width="10" height="40" as="geometry" />
        </mxCell>
        <mxCell id="b-UJ_pfdfNBNcFtkT3sI-12" value="" style="rounded=1;whiteSpace=wrap;html=1;strokeWidth=2;fillWeight=2;hachureGap=4;hachureAngle=45;sketch=1;" vertex="1" parent="1">
          <mxGeometry x="190" y="80" width="10" height="40" as="geometry" />
        </mxCell>
        <mxCell id="b-UJ_pfdfNBNcFtkT3sI-13" value="" style="rounded=1;whiteSpace=wrap;html=1;strokeWidth=2;fillWeight=2;hachureGap=4;hachureAngle=45;sketch=1;" vertex="1" parent="1">
          <mxGeometry x="200" y="80" width="10" height="40" as="geometry" />
        </mxCell>
        <mxCell id="b-UJ_pfdfNBNcFtkT3sI-14" value="" style="rounded=1;whiteSpace=wrap;html=1;strokeWidth=2;fillWeight=2;hachureGap=4;hachureAngle=45;sketch=1;" vertex="1" parent="1">
          <mxGeometry x="210" y="80" width="10" height="40" as="geometry" />
        </mxCell>
        <mxCell id="b-UJ_pfdfNBNcFtkT3sI-15" value="" style="rounded=1;whiteSpace=wrap;html=1;strokeWidth=2;fillWeight=2;hachureGap=4;hachureAngle=45;sketch=1;" vertex="1" parent="1">
          <mxGeometry x="220" y="80" width="10" height="40" as="geometry" />
        </mxCell>
        <mxCell id="b-UJ_pfdfNBNcFtkT3sI-16" value="" style="rounded=1;whiteSpace=wrap;html=1;strokeWidth=2;fillWeight=2;hachureGap=4;hachureAngle=45;sketch=1;" vertex="1" parent="1">
          <mxGeometry x="230" y="80" width="10" height="40" as="geometry" />
        </mxCell>
        <mxCell id="b-UJ_pfdfNBNcFtkT3sI-17" value="" style="rounded=1;whiteSpace=wrap;html=1;strokeWidth=2;fillWeight=2;hachureGap=4;hachureAngle=45;sketch=1;" vertex="1" parent="1">
          <mxGeometry x="240" y="80" width="10" height="40" as="geometry" />
        </mxCell>
        <mxCell id="b-UJ_pfdfNBNcFtkT3sI-18" value="" style="rounded=1;whiteSpace=wrap;html=1;strokeWidth=2;fillWeight=2;hachureGap=4;hachureAngle=45;sketch=1;" vertex="1" parent="1">
          <mxGeometry x="250" y="80" width="10" height="40" as="geometry" />
        </mxCell>
        <mxCell id="b-UJ_pfdfNBNcFtkT3sI-19" value="" style="rounded=1;whiteSpace=wrap;html=1;strokeWidth=2;fillWeight=2;hachureGap=4;hachureAngle=45;sketch=1;" vertex="1" parent="1">
          <mxGeometry x="260" y="80" width="10" height="40" as="geometry" />
        </mxCell>
        <mxCell id="b-UJ_pfdfNBNcFtkT3sI-20" value="" style="rounded=1;whiteSpace=wrap;html=1;strokeWidth=2;fillWeight=2;hachureGap=4;hachureAngle=45;sketch=1;" vertex="1" parent="1">
          <mxGeometry x="270" y="80" width="10" height="40" as="geometry" />
        </mxCell>
        <mxCell id="b-UJ_pfdfNBNcFtkT3sI-36" value="" style="endArrow=classic;html=1;sketch=1;" edge="1" parent="1">
          <mxGeometry width="50" height="50" relative="1" as="geometry">
            <mxPoint x="80" y="160" as="sourcePoint" />
            <mxPoint x="80" y="120" as="targetPoint" />
          </mxGeometry>
        </mxCell>
        <mxCell id="b-UJ_pfdfNBNcFtkT3sI-37" value="" style="endArrow=classic;html=1;sketch=1;" edge="1" parent="1">
          <mxGeometry width="50" height="50" relative="1" as="geometry">
            <mxPoint x="160" y="160" as="sourcePoint" />
            <mxPoint x="160" y="120" as="targetPoint" />
          </mxGeometry>
        </mxCell>
        <mxCell id="b-UJ_pfdfNBNcFtkT3sI-38" value="" style="endArrow=classic;html=1;sketch=1;" edge="1" parent="1">
          <mxGeometry width="50" height="50" relative="1" as="geometry">
            <mxPoint x="229.51999999999998" y="160" as="sourcePoint" />
            <mxPoint x="229.51999999999998" y="120" as="targetPoint" />
          </mxGeometry>
        </mxCell>
        <mxCell id="b-UJ_pfdfNBNcFtkT3sI-39" value="" style="endArrow=none;html=1;sketch=1;endFill=0;startArrow=classic;startFill=1;" edge="1" parent="1">
          <mxGeometry width="50" height="50" relative="1" as="geometry">
            <mxPoint x="280" y="80" as="sourcePoint" />
            <mxPoint x="280" y="40" as="targetPoint" />
          </mxGeometry>
        </mxCell>
        <mxCell id="b-UJ_pfdfNBNcFtkT3sI-40" value="truncate" style="text;html=1;align=center;verticalAlign=middle;resizable=0;points=[];autosize=1;strokeColor=none;fillColor=none;" vertex="1" parent="1">
          <mxGeometry x="50" y="160" width="60" height="20" as="geometry" />
        </mxCell>
        <mxCell id="b-UJ_pfdfNBNcFtkT3sI-41" value="applied" style="text;html=1;align=center;verticalAlign=middle;resizable=0;points=[];autosize=1;strokeColor=none;fillColor=none;" vertex="1" parent="1">
          <mxGeometry x="135" y="160" width="50" height="20" as="geometry" />
        </mxCell>
        <mxCell id="b-UJ_pfdfNBNcFtkT3sI-42" value="commited" style="text;html=1;align=center;verticalAlign=middle;resizable=0;points=[];autosize=1;strokeColor=none;fillColor=none;" vertex="1" parent="1">
          <mxGeometry x="194" y="160" width="70" height="20" as="geometry" />
        </mxCell>
        <mxCell id="b-UJ_pfdfNBNcFtkT3sI-43" value="" style="endArrow=none;html=1;sketch=1;endFill=0;startArrow=classic;startFill=1;" edge="1" parent="1">
          <mxGeometry width="50" height="50" relative="1" as="geometry">
            <mxPoint x="79.86000000000001" y="80" as="sourcePoint" />
            <mxPoint x="79.86000000000001" y="40" as="targetPoint" />
          </mxGeometry>
        </mxCell>
        <mxCell id="b-UJ_pfdfNBNcFtkT3sI-44" value="first" style="text;html=1;align=center;verticalAlign=middle;resizable=0;points=[];autosize=1;strokeColor=none;fillColor=none;" vertex="1" parent="1">
          <mxGeometry x="65" y="20" width="30" height="20" as="geometry" />
        </mxCell>
        <mxCell id="b-UJ_pfdfNBNcFtkT3sI-45" value="last" style="text;html=1;align=center;verticalAlign=middle;resizable=0;points=[];autosize=1;strokeColor=none;fillColor=none;" vertex="1" parent="1">
          <mxGeometry x="264" y="20" width="30" height="20" as="geometry" />
        </mxCell>
      </root>
    </mxGraphModel>
  </diagram>
</mxfile>
